<svg id="visual" viewBox="0 0 900 100" width="900" height="100" xmlns="http://www.w3.org/2000/svg" xmlns:xlink="http://www.w3.org/1999/xlink" version="1.1"><path d="M0 18L13.7 17C27.3 16 54.7 14 82 12.5C109.3 11 136.7 10 163.8 10.8C191 11.7 218 14.3 245.2 17C272.3 19.7 299.7 22.3 327 21.8C354.3 21.3 381.7 17.7 409 17.7C436.3 17.7 463.7 21.3 491 23.2C518.3 25 545.7 25 573 23.8C600.3 22.7 627.7 20.3 654.8 20.3C682 20.3 709 22.7 736.2 22.8C763.3 23 790.7 21 818 19.7C845.3 18.3 872.7 17.7 886.3 17.3L900 17L900 0L886.3 0C872.7 0 845.3 0 818 0C790.7 0 763.3 0 736.2 0C709 0 682 0 654.8 0C627.7 0 600.3 0 573 0C545.7 0 518.3 0 491 0C463.7 0 436.3 0 409 0C381.7 0 354.3 0 327 0C299.7 0 272.3 0 245.2 0C218 0 191 0 163.8 0C136.7 0 109.3 0 82 0C54.7 0 27.3 0 13.7 0L0 0Z" fill="#74c69d"></path><path d="M0 32L13.7 31.3C27.3 30.7 54.7 29.3 82 28.7C109.3 28 136.7 28 163.8 27.5C191 27 218 26 245.2 28.3C272.3 30.7 299.7 36.3 327 38.2C354.3 40 381.7 38 409 37.7C436.3 37.3 463.7 38.7 491 40.2C518.3 41.7 545.7 43.3 573 42.3C600.3 41.3 627.7 37.7 654.8 37.2C682 36.7 709 39.3 736.2 38.7C763.3 38 790.7 34 818 32.7C845.3 31.3 872.7 32.7 886.3 33.3L900 34L900 15L886.3 15.3C872.7 15.7 845.3 16.3 818 17.7C790.7 19 763.3 21 736.2 20.8C709 20.7 682 18.3 654.8 18.3C627.7 18.3 600.3 20.7 573 21.8C545.7 23 518.3 23 491 21.2C463.7 19.3 436.3 15.7 409 15.7C381.7 15.7 354.3 19.3 327 19.8C299.7 20.3 272.3 17.7 245.2 15C218 12.3 191 9.7 163.8 8.8C136.7 8 109.3 9 82 10.5C54.7 12 27.3 14 13.7 15L0 16Z" fill="#449c95"></path><path d="M0 73L13.7 70C27.3 67 54.7 61 82 59C109.3 57 136.7 59 163.8 58.3C191 57.7 218 54.3 245.2 56.2C272.3 58 299.7 65 327 68C354.3 71 381.7 70 409 69.5C436.3 69 463.7 69 491 69.8C518.3 70.7 545.7 72.3 573 70.7C600.3 69 627.7 64 654.8 64.2C682 64.3 709 69.7 736.2 69.2C763.3 68.7 790.7 62.3 818 59.8C845.3 57.3 872.7 58.7 886.3 59.3L900 60L900 32L886.3 31.3C872.7 30.7 845.3 29.3 818 30.7C790.7 32 763.3 36 736.2 36.7C709 37.3 682 34.7 654.8 35.2C627.7 35.7 600.3 39.3 573 40.3C545.7 41.3 518.3 39.7 491 38.2C463.7 36.7 436.3 35.3 409 35.7C381.7 36 354.3 38 327 36.2C299.7 34.3 272.3 28.7 245.2 26.3C218 24 191 25 163.8 25.5C136.7 26 109.3 26 82 26.7C54.7 27.3 27.3 28.7 13.7 29.3L0 30Z" fill="#35727d"></path><path d="M0 79L13.7 77C27.3 75 54.7 71 82 70.2C109.3 69.3 136.7 71.7 163.8 70.2C191 68.7 218 63.3 245.2 64.7C272.3 66 299.7 74 327 77C354.3 80 381.7 78 409 77.5C436.3 77 463.7 78 491 79.5C518.3 81 545.7 83 573 81.5C600.3 80 627.7 75 654.8 75.7C682 76.3 709 82.7 736.2 81.8C763.3 81 790.7 73 818 70.2C845.3 67.3 872.7 69.7 886.3 70.8L900 72L900 58L886.3 57.3C872.7 56.7 845.3 55.3 818 57.8C790.7 60.3 763.3 66.7 736.2 67.2C709 67.7 682 62.3 654.8 62.2C627.7 62 600.3 67 573 68.7C545.7 70.3 518.3 68.7 491 67.8C463.7 67 436.3 67 409 67.5C381.7 68 354.3 69 327 66C299.7 63 272.3 56 245.2 54.2C218 52.3 191 55.7 163.8 56.3C136.7 57 109.3 55 82 57C54.7 59 27.3 65 13.7 68L0 71Z" fill="#324957"></path><path d="M0 101L13.7 101C27.3 101 54.7 101 82 101C109.3 101 136.7 101 163.8 101C191 101 218 101 245.2 101C272.3 101 299.7 101 327 101C354.3 101 381.7 101 409 101C436.3 101 463.7 101 491 101C518.3 101 545.7 101 573 101C600.3 101 627.7 101 654.8 101C682 101 709 101 736.2 101C763.3 101 790.7 101 818 101C845.3 101 872.7 101 886.3 101L900 101L900 70L886.3 68.8C872.7 67.7 845.3 65.3 818 68.2C790.7 71 763.3 79 736.2 79.8C709 80.7 682 74.3 654.8 73.7C627.7 73 600.3 78 573 79.5C545.7 81 518.3 79 491 77.5C463.7 76 436.3 75 409 75.5C381.7 76 354.3 78 327 75C299.7 72 272.3 64 245.2 62.7C218 61.3 191 66.7 163.8 68.2C136.7 69.7 109.3 67.3 82 68.2C54.7 69 27.3 73 13.7 75L0 77Z" fill="#24262b"></path></svg>