<svg id="visual" viewBox="0 0 900 100" width="900" height="100" xmlns="http://www.w3.org/2000/svg" xmlns:xlink="http://www.w3.org/1999/xlink" version="1.1"><path d="M0 20L13.7 18.8C27.3 17.7 54.7 15.3 82 15.5C109.3 15.7 136.7 18.3 163.8 19.7C191 21 218 21 245.2 19.3C272.3 17.7 299.7 14.3 327 15.2C354.3 16 381.7 21 409 21.3C436.3 21.7 463.7 17.3 491 18C518.3 18.7 545.7 24.3 573 25.8C600.3 27.3 627.7 24.7 654.8 22.3C682 20 709 18 736.2 16.8C763.3 15.7 790.7 15.3 818 15.2C845.3 15 872.7 15 886.3 15L900 15L900 0L886.3 0C872.7 0 845.3 0 818 0C790.7 0 763.3 0 736.2 0C709 0 682 0 654.8 0C627.7 0 600.3 0 573 0C545.7 0 518.3 0 491 0C463.7 0 436.3 0 409 0C381.7 0 354.3 0 327 0C299.7 0 272.3 0 245.2 0C218 0 191 0 163.8 0C136.7 0 109.3 0 82 0C54.7 0 27.3 0 13.7 0L0 0Z" fill="#fff1e6"></path><path d="M0 55L13.7 52C27.3 49 54.7 43 82 41C109.3 39 136.7 41 163.8 41.3C191 41.7 218 40.3 245.2 38C272.3 35.7 299.7 32.3 327 35.2C354.3 38 381.7 47 409 52.5C436.3 58 463.7 60 491 58.2C518.3 56.3 545.7 50.7 573 48.7C600.3 46.7 627.7 48.3 654.8 46.3C682 44.3 709 38.7 736.2 38.8C763.3 39 790.7 45 818 47.5C845.3 50 872.7 49 886.3 48.5L900 48L900 13L886.3 13C872.7 13 845.3 13 818 13.2C790.7 13.3 763.3 13.7 736.2 14.8C709 16 682 18 654.8 20.3C627.7 22.7 600.3 25.3 573 23.8C545.7 22.3 518.3 16.7 491 16C463.7 15.3 436.3 19.7 409 19.3C381.7 19 354.3 14 327 13.2C299.7 12.3 272.3 15.7 245.2 17.3C218 19 191 19 163.8 17.7C136.7 16.3 109.3 13.7 82 13.5C54.7 13.3 27.3 15.7 13.7 16.8L0 18Z" fill="#fff5ec"></path><path d="M0 67L13.7 63C27.3 59 54.7 51 82 49.5C109.3 48 136.7 53 163.8 55.2C191 57.3 218 56.7 245.2 54.5C272.3 52.3 299.7 48.7 327 52C354.3 55.3 381.7 65.7 409 70.2C436.3 74.7 463.7 73.3 491 70.3C518.3 67.3 545.7 62.7 573 61.2C600.3 59.7 627.7 61.3 654.8 60.5C682 59.7 709 56.3 736.2 57.8C763.3 59.3 790.7 65.7 818 67.5C845.3 69.3 872.7 66.7 886.3 65.3L900 64L900 46L886.3 46.5C872.7 47 845.3 48 818 45.5C790.7 43 763.3 37 736.2 36.8C709 36.7 682 42.3 654.8 44.3C627.7 46.3 600.3 44.7 573 46.7C545.7 48.7 518.3 54.3 491 56.2C463.7 58 436.3 56 409 50.5C381.7 45 354.3 36 327 33.2C299.7 30.3 272.3 33.7 245.2 36C218 38.3 191 39.7 163.8 39.3C136.7 39 109.3 37 82 39C54.7 41 27.3 47 13.7 50L0 53Z" fill="#fff8f2"></path><path d="M0 82L13.7 78.3C27.3 74.7 54.7 67.3 82 65.2C109.3 63 136.7 66 163.8 67.8C191 69.7 218 70.3 245.2 69.2C272.3 68 299.7 65 327 66.8C354.3 68.7 381.7 75.3 409 78.5C436.3 81.7 463.7 81.3 491 78.5C518.3 75.7 545.7 70.3 573 68.3C600.3 66.3 627.7 67.7 654.8 67.8C682 68 709 67 736.2 69.3C763.3 71.7 790.7 77.3 818 79.2C845.3 81 872.7 79 886.3 78L900 77L900 62L886.3 63.3C872.7 64.7 845.3 67.3 818 65.5C790.7 63.7 763.3 57.3 736.2 55.8C709 54.3 682 57.7 654.8 58.5C627.7 59.3 600.3 57.7 573 59.2C545.7 60.7 518.3 65.3 491 68.3C463.7 71.3 436.3 72.7 409 68.2C381.7 63.7 354.3 53.3 327 50C299.7 46.7 272.3 50.3 245.2 52.5C218 54.7 191 55.3 163.8 53.2C136.7 51 109.3 46 82 47.5C54.7 49 27.3 57 13.7 61L0 65Z" fill="#fffbf8"></path><path d="M0 101L13.7 101C27.3 101 54.7 101 82 101C109.3 101 136.7 101 163.8 101C191 101 218 101 245.2 101C272.3 101 299.7 101 327 101C354.3 101 381.7 101 409 101C436.3 101 463.7 101 491 101C518.3 101 545.7 101 573 101C600.3 101 627.7 101 654.8 101C682 101 709 101 736.2 101C763.3 101 790.7 101 818 101C845.3 101 872.7 101 886.3 101L900 101L900 75L886.3 76C872.7 77 845.3 79 818 77.2C790.7 75.3 763.3 69.7 736.2 67.3C709 65 682 66 654.8 65.8C627.7 65.7 600.3 64.3 573 66.3C545.7 68.3 518.3 73.7 491 76.5C463.7 79.3 436.3 79.7 409 76.5C381.7 73.3 354.3 66.7 327 64.8C299.7 63 272.3 66 245.2 67.2C218 68.3 191 67.7 163.8 65.8C136.7 64 109.3 61 82 63.2C54.7 65.3 27.3 72.7 13.7 76.3L0 80Z" fill="#ffffff"></path></svg>