<svg id="visual" viewBox="0 0 900 100" width="900" height="100" xmlns="http://www.w3.org/2000/svg" xmlns:xlink="http://www.w3.org/1999/xlink" version="1.1"><path d="M0 32L13.7 34.2C27.3 36.3 54.7 40.7 82 37.8C109.3 35 136.7 25 163.8 22.3C191 19.7 218 24.3 245.2 29.3C272.3 34.3 299.7 39.7 327 41.5C354.3 43.3 381.7 41.7 409 39.3C436.3 37 463.7 34 491 33.2C518.3 32.3 545.7 33.7 573 32.2C600.3 30.7 627.7 26.3 654.8 23C682 19.7 709 17.3 736.2 20.5C763.3 23.7 790.7 32.3 818 33.2C845.3 34 872.7 27 886.3 23.5L900 20L900 0L886.3 0C872.7 0 845.3 0 818 0C790.7 0 763.3 0 736.2 0C709 0 682 0 654.8 0C627.7 0 600.3 0 573 0C545.7 0 518.3 0 491 0C463.7 0 436.3 0 409 0C381.7 0 354.3 0 327 0C299.7 0 272.3 0 245.2 0C218 0 191 0 163.8 0C136.7 0 109.3 0 82 0C54.7 0 27.3 0 13.7 0L0 0Z" fill="#a8dadc"></path><path d="M0 46L13.7 49.2C27.3 52.3 54.7 58.7 82 59.7C109.3 60.7 136.7 56.3 163.8 55.2C191 54 218 56 245.2 57.2C272.3 58.3 299.7 58.7 327 59.2C354.3 59.7 381.7 60.3 409 61.2C436.3 62 463.7 63 491 61.2C518.3 59.3 545.7 54.7 573 55C600.3 55.3 627.7 60.7 654.8 61C682 61.3 709 56.7 736.2 54.7C763.3 52.7 790.7 53.3 818 52.3C845.3 51.3 872.7 48.7 886.3 47.3L900 46L900 18L886.3 21.5C872.7 25 845.3 32 818 31.2C790.7 30.3 763.3 21.7 736.2 18.5C709 15.3 682 17.7 654.8 21C627.7 24.3 600.3 28.7 573 30.2C545.7 31.7 518.3 30.3 491 31.2C463.7 32 436.3 35 409 37.3C381.7 39.7 354.3 41.3 327 39.5C299.7 37.7 272.3 32.3 245.2 27.3C218 22.3 191 17.7 163.8 20.3C136.7 23 109.3 33 82 35.8C54.7 38.7 27.3 34.3 13.7 32.2L0 30Z" fill="#b7dfdd"></path><path d="M0 65L13.7 66.7C27.3 68.3 54.7 71.7 82 73C109.3 74.3 136.7 73.7 163.8 74C191 74.3 218 75.7 245.2 75.5C272.3 75.3 299.7 73.7 327 72.3C354.3 71 381.7 70 409 71C436.3 72 463.7 75 491 75.7C518.3 76.3 545.7 74.7 573 74.5C600.3 74.3 627.7 75.7 654.8 75.7C682 75.7 709 74.3 736.2 74.5C763.3 74.7 790.7 76.3 818 75.3C845.3 74.3 872.7 70.7 886.3 68.8L900 67L900 44L886.3 45.3C872.7 46.7 845.3 49.3 818 50.3C790.7 51.3 763.3 50.7 736.2 52.7C709 54.7 682 59.3 654.8 59C627.7 58.7 600.3 53.3 573 53C545.7 52.7 518.3 57.3 491 59.2C463.7 61 436.3 60 409 59.2C381.7 58.3 354.3 57.7 327 57.2C299.7 56.7 272.3 56.3 245.2 55.2C218 54 191 52 163.8 53.2C136.7 54.3 109.3 58.7 82 57.7C54.7 56.7 27.3 50.3 13.7 47.2L0 44Z" fill="#c6e3e0"></path><path d="M0 85L13.7 85.8C27.3 86.7 54.7 88.3 82 88.3C109.3 88.3 136.7 86.7 163.8 85.8C191 85 218 85 245.2 84.8C272.3 84.7 299.7 84.3 327 84.7C354.3 85 381.7 86 409 86.8C436.3 87.7 463.7 88.3 491 88C518.3 87.7 545.7 86.3 573 85.7C600.3 85 627.7 85 654.8 85.2C682 85.3 709 85.7 736.2 87.2C763.3 88.7 790.7 91.3 818 91.3C845.3 91.3 872.7 88.7 886.3 87.3L900 86L900 65L886.3 66.8C872.7 68.7 845.3 72.3 818 73.3C790.7 74.3 763.3 72.7 736.2 72.5C709 72.3 682 73.7 654.8 73.7C627.7 73.7 600.3 72.3 573 72.5C545.7 72.7 518.3 74.3 491 73.7C463.7 73 436.3 70 409 69C381.7 68 354.3 69 327 70.3C299.7 71.7 272.3 73.3 245.2 73.5C218 73.7 191 72.3 163.8 72C136.7 71.7 109.3 72.3 82 71C54.7 69.7 27.3 66.3 13.7 64.7L0 63Z" fill="#d4e8e4"></path><path d="M0 101L13.7 101C27.3 101 54.7 101 82 101C109.3 101 136.7 101 163.8 101C191 101 218 101 245.2 101C272.3 101 299.7 101 327 101C354.3 101 381.7 101 409 101C436.3 101 463.7 101 491 101C518.3 101 545.7 101 573 101C600.3 101 627.7 101 654.8 101C682 101 709 101 736.2 101C763.3 101 790.7 101 818 101C845.3 101 872.7 101 886.3 101L900 101L900 84L886.3 85.3C872.7 86.7 845.3 89.3 818 89.3C790.7 89.3 763.3 86.7 736.2 85.2C709 83.7 682 83.3 654.8 83.2C627.7 83 600.3 83 573 83.7C545.7 84.3 518.3 85.7 491 86C463.7 86.3 436.3 85.7 409 84.8C381.7 84 354.3 83 327 82.7C299.7 82.3 272.3 82.7 245.2 82.8C218 83 191 83 163.8 83.8C136.7 84.7 109.3 86.3 82 86.3C54.7 86.3 27.3 84.7 13.7 83.8L0 83Z" fill="#e2ece9"></path></svg>