<svg id="visual" viewBox="0 0 960 200" width="960" height="200" xmlns="http://www.w3.org/2000/svg" xmlns:xlink="http://www.w3.org/1999/xlink" version="1.1"><path d="M0 16L20 23.8C40 31.7 80 47.3 120 55C160 62.7 200 62.3 240 57.5C280 52.7 320 43.3 360 38.2C400 33 440 32 480 30.2C520 28.3 560 25.7 600 31C640 36.3 680 49.7 720 57.2C760 64.7 800 66.3 840 67.2C880 68 920 68 940 68L960 68L960 201L940 201C920 201 880 201 840 201C800 201 760 201 720 201C680 201 640 201 600 201C560 201 520 201 480 201C440 201 400 201 360 201C320 201 280 201 240 201C200 201 160 201 120 201C80 201 40 201 20 201L0 201Z" fill="#f8b7cf"></path><path d="M0 107L20 102.2C40 97.3 80 87.7 120 88.2C160 88.7 200 99.3 240 95.3C280 91.3 320 72.7 360 62.5C400 52.3 440 50.7 480 51.8C520 53 560 57 600 66.8C640 76.7 680 92.3 720 90.2C760 88 800 68 840 66.8C880 65.7 920 83.3 940 92.2L960 101L960 201L940 201C920 201 880 201 840 201C800 201 760 201 720 201C680 201 640 201 600 201C560 201 520 201 480 201C440 201 400 201 360 201C320 201 280 201 240 201C200 201 160 201 120 201C80 201 40 201 20 201L0 201Z" fill="#f9c9db"></path><path d="M0 134L20 134.7C40 135.3 80 136.7 120 139.3C160 142 200 146 240 138.5C280 131 320 112 360 107.7C400 103.3 440 113.7 480 122.7C520 131.7 560 139.3 600 143.5C640 147.7 680 148.3 720 139.5C760 130.7 800 112.3 840 105.2C880 98 920 102 940 104L960 106L960 201L940 201C920 201 880 201 840 201C800 201 760 201 720 201C680 201 640 201 600 201C560 201 520 201 480 201C440 201 400 201 360 201C320 201 280 201 240 201C200 201 160 201 120 201C80 201 40 201 20 201L0 201Z" fill="#fbd7e4"></path><path d="M0 189L20 182.2C40 175.3 80 161.7 120 153.7C160 145.7 200 143.3 240 149.8C280 156.3 320 171.7 360 172.7C400 173.7 440 160.3 480 153.7C520 147 560 147 600 152.7C640 158.3 680 169.7 720 171.5C760 173.3 800 165.7 840 163.8C880 162 920 166 940 168L960 170L960 201L940 201C920 201 880 201 840 201C800 201 760 201 720 201C680 201 640 201 600 201C560 201 520 201 480 201C440 201 400 201 360 201C320 201 280 201 240 201C200 201 160 201 120 201C80 201 40 201 20 201L0 201Z" fill="#fce1eb"></path></svg>