<svg id="visual" viewBox="0 0 900 100" width="900" height="100" xmlns="http://www.w3.org/2000/svg" xmlns:xlink="http://www.w3.org/1999/xlink" version="1.1"><path d="M0 35L13.7 32.8C27.3 30.7 54.7 26.3 82 26C109.3 25.7 136.7 29.3 163.8 29.2C191 29 218 25 245.2 24.7C272.3 24.3 299.7 27.7 327 30.2C354.3 32.7 381.7 34.3 409 32.5C436.3 30.7 463.7 25.3 491 24.3C518.3 23.3 545.7 26.7 573 31.5C600.3 36.3 627.7 42.7 654.8 45.2C682 47.7 709 46.3 736.2 46.7C763.3 47 790.7 49 818 45.8C845.3 42.7 872.7 34.3 886.3 30.2L900 26L900 0L886.3 0C872.7 0 845.3 0 818 0C790.7 0 763.3 0 736.2 0C709 0 682 0 654.8 0C627.7 0 600.3 0 573 0C545.7 0 518.3 0 491 0C463.7 0 436.3 0 409 0C381.7 0 354.3 0 327 0C299.7 0 272.3 0 245.2 0C218 0 191 0 163.8 0C136.7 0 109.3 0 82 0C54.7 0 27.3 0 13.7 0L0 0Z" fill="#a8dadc"></path><path d="M0 41L13.7 39.3C27.3 37.7 54.7 34.3 82 35.2C109.3 36 136.7 41 163.8 41.7C191 42.3 218 38.7 245.2 38.8C272.3 39 299.7 43 327 45.2C354.3 47.3 381.7 47.7 409 44.7C436.3 41.7 463.7 35.3 491 34.3C518.3 33.3 545.7 37.7 573 42.5C600.3 47.3 627.7 52.7 654.8 54.7C682 56.7 709 55.3 736.2 55.5C763.3 55.7 790.7 57.3 818 55.5C845.3 53.7 872.7 48.3 886.3 45.7L900 43L900 24L886.3 28.2C872.7 32.3 845.3 40.7 818 43.8C790.7 47 763.3 45 736.2 44.7C709 44.3 682 45.7 654.8 43.2C627.7 40.7 600.3 34.3 573 29.5C545.7 24.7 518.3 21.3 491 22.3C463.7 23.3 436.3 28.7 409 30.5C381.7 32.3 354.3 30.7 327 28.2C299.7 25.7 272.3 22.3 245.2 22.7C218 23 191 27 163.8 27.2C136.7 27.3 109.3 23.7 82 24C54.7 24.3 27.3 28.7 13.7 30.8L0 33Z" fill="#bfe1ec"></path><path d="M0 58L13.7 56.8C27.3 55.7 54.7 53.3 82 52.7C109.3 52 136.7 53 163.8 52.3C191 51.7 218 49.3 245.2 50.2C272.3 51 299.7 55 327 58.7C354.3 62.3 381.7 65.7 409 62.8C436.3 60 463.7 51 491 49.8C518.3 48.7 545.7 55.3 573 59.5C600.3 63.7 627.7 65.3 654.8 67.3C682 69.3 709 71.7 736.2 71.5C763.3 71.3 790.7 68.7 818 66.5C845.3 64.3 872.7 62.7 886.3 61.8L900 61L900 41L886.3 43.7C872.7 46.3 845.3 51.7 818 53.5C790.7 55.3 763.3 53.7 736.2 53.5C709 53.3 682 54.7 654.8 52.7C627.7 50.7 600.3 45.3 573 40.5C545.7 35.7 518.3 31.3 491 32.3C463.7 33.3 436.3 39.7 409 42.7C381.7 45.7 354.3 45.3 327 43.2C299.7 41 272.3 37 245.2 36.8C218 36.7 191 40.3 163.8 39.7C136.7 39 109.3 34 82 33.2C54.7 32.3 27.3 35.7 13.7 37.3L0 39Z" fill="#d7e9f5"></path><path d="M0 84L13.7 82.2C27.3 80.3 54.7 76.7 82 75.5C109.3 74.3 136.7 75.7 163.8 74.8C191 74 218 71 245.2 71.7C272.3 72.3 299.7 76.7 327 78.2C354.3 79.7 381.7 78.3 409 75.3C436.3 72.3 463.7 67.7 491 67.5C518.3 67.3 545.7 71.7 573 75.5C600.3 79.3 627.7 82.7 654.8 83.8C682 85 709 84 736.2 82.5C763.3 81 790.7 79 818 76.8C845.3 74.7 872.7 72.3 886.3 71.2L900 70L900 59L886.3 59.8C872.7 60.7 845.3 62.3 818 64.5C790.7 66.7 763.3 69.3 736.2 69.5C709 69.7 682 67.3 654.8 65.3C627.7 63.3 600.3 61.7 573 57.5C545.7 53.3 518.3 46.7 491 47.8C463.7 49 436.3 58 409 60.8C381.7 63.7 354.3 60.3 327 56.7C299.7 53 272.3 49 245.2 48.2C218 47.3 191 49.7 163.8 50.3C136.7 51 109.3 50 82 50.7C54.7 51.3 27.3 53.7 13.7 54.8L0 56Z" fill="#ecf2fa"></path><path d="M0 101L13.7 101C27.3 101 54.7 101 82 101C109.3 101 136.7 101 163.8 101C191 101 218 101 245.2 101C272.3 101 299.7 101 327 101C354.3 101 381.7 101 409 101C436.3 101 463.7 101 491 101C518.3 101 545.7 101 573 101C600.3 101 627.7 101 654.8 101C682 101 709 101 736.2 101C763.3 101 790.7 101 818 101C845.3 101 872.7 101 886.3 101L900 101L900 68L886.3 69.2C872.7 70.3 845.3 72.7 818 74.8C790.7 77 763.3 79 736.2 80.5C709 82 682 83 654.8 81.8C627.7 80.7 600.3 77.3 573 73.5C545.7 69.7 518.3 65.3 491 65.5C463.7 65.7 436.3 70.3 409 73.3C381.7 76.3 354.3 77.7 327 76.2C299.7 74.7 272.3 70.3 245.2 69.7C218 69 191 72 163.8 72.8C136.7 73.7 109.3 72.3 82 73.5C54.7 74.7 27.3 78.3 13.7 80.2L0 82Z" fill="#fcfcfd"></path></svg>