<svg id="visual" viewBox="0 0 900 100" width="900" height="100" xmlns="http://www.w3.org/2000/svg" xmlns:xlink="http://www.w3.org/1999/xlink" version="1.1"><rect x="0" y="0" width="900" height="100" fill="#E2ECE9"></rect><path d="M0 8L13.7 10.8C27.3 13.7 54.7 19.3 82 22.2C109.3 25 136.7 25 163.8 23C191 21 218 17 245.2 14.2C272.3 11.3 299.7 9.7 327 8.7C354.3 7.7 381.7 7.3 409 7C436.3 6.7 463.7 6.3 491 7.8C518.3 9.3 545.7 12.7 573 14.7C600.3 16.7 627.7 17.3 654.8 16.5C682 15.7 709 13.3 736.2 12.5C763.3 11.7 790.7 12.3 818 11.8C845.3 11.3 872.7 9.7 886.3 8.8L900 8L900 101L886.3 101C872.7 101 845.3 101 818 101C790.7 101 763.3 101 736.2 101C709 101 682 101 654.8 101C627.7 101 600.3 101 573 101C545.7 101 518.3 101 491 101C463.7 101 436.3 101 409 101C381.7 101 354.3 101 327 101C299.7 101 272.3 101 245.2 101C218 101 191 101 163.8 101C136.7 101 109.3 101 82 101C54.7 101 27.3 101 13.7 101L0 101Z" fill="#e2ece9"></path><path d="M0 25L13.7 26.2C27.3 27.3 54.7 29.7 82 32.3C109.3 35 136.7 38 163.8 36.5C191 35 218 29 245.2 28.2C272.3 27.3 299.7 31.7 327 31.8C354.3 32 381.7 28 409 28.7C436.3 29.3 463.7 34.7 491 35.3C518.3 36 545.7 32 573 32.3C600.3 32.7 627.7 37.3 654.8 38.7C682 40 709 38 736.2 38C763.3 38 790.7 40 818 40.8C845.3 41.7 872.7 41.3 886.3 41.2L900 41L900 101L886.3 101C872.7 101 845.3 101 818 101C790.7 101 763.3 101 736.2 101C709 101 682 101 654.8 101C627.7 101 600.3 101 573 101C545.7 101 518.3 101 491 101C463.7 101 436.3 101 409 101C381.7 101 354.3 101 327 101C299.7 101 272.3 101 245.2 101C218 101 191 101 163.8 101C136.7 101 109.3 101 82 101C54.7 101 27.3 101 13.7 101L0 101Z" fill="#e6eee7"></path><path d="M0 57L13.7 54.7C27.3 52.3 54.7 47.7 82 45.5C109.3 43.3 136.7 43.7 163.8 43.3C191 43 218 42 245.2 42.2C272.3 42.3 299.7 43.7 327 43.7C354.3 43.7 381.7 42.3 409 41.8C436.3 41.3 463.7 41.7 491 43.2C518.3 44.7 545.7 47.3 573 49.8C600.3 52.3 627.7 54.7 654.8 55.2C682 55.7 709 54.3 736.2 53.7C763.3 53 790.7 53 818 52.5C845.3 52 872.7 51 886.3 50.5L900 50L900 101L886.3 101C872.7 101 845.3 101 818 101C790.7 101 763.3 101 736.2 101C709 101 682 101 654.8 101C627.7 101 600.3 101 573 101C545.7 101 518.3 101 491 101C463.7 101 436.3 101 409 101C381.7 101 354.3 101 327 101C299.7 101 272.3 101 245.2 101C218 101 191 101 163.8 101C136.7 101 109.3 101 82 101C54.7 101 27.3 101 13.7 101L0 101Z" fill="#edf0e5"></path><path d="M0 71L13.7 69.7C27.3 68.3 54.7 65.7 82 63.3C109.3 61 136.7 59 163.8 58.7C191 58.3 218 59.7 245.2 62.2C272.3 64.7 299.7 68.3 327 67.5C354.3 66.7 381.7 61.3 409 60.5C436.3 59.7 463.7 63.3 491 65.8C518.3 68.3 545.7 69.7 573 70.5C600.3 71.3 627.7 71.7 654.8 71.3C682 71 709 70 736.2 69.3C763.3 68.7 790.7 68.3 818 68.5C845.3 68.7 872.7 69.3 886.3 69.7L900 70L900 101L886.3 101C872.7 101 845.3 101 818 101C790.7 101 763.3 101 736.2 101C709 101 682 101 654.8 101C627.7 101 600.3 101 573 101C545.7 101 518.3 101 491 101C463.7 101 436.3 101 409 101C381.7 101 354.3 101 327 101C299.7 101 272.3 101 245.2 101C218 101 191 101 163.8 101C136.7 101 109.3 101 82 101C54.7 101 27.3 101 13.7 101L0 101Z" fill="#f6f1e4"></path><path d="M0 84L13.7 85.3C27.3 86.7 54.7 89.3 82 87.8C109.3 86.3 136.7 80.7 163.8 78C191 75.3 218 75.7 245.2 76.3C272.3 77 299.7 78 327 77.7C354.3 77.3 381.7 75.7 409 75.7C436.3 75.7 463.7 77.3 491 79.7C518.3 82 545.7 85 573 84.3C600.3 83.7 627.7 79.3 654.8 79.2C682 79 709 83 736.2 83.8C763.3 84.7 790.7 82.3 818 82.7C845.3 83 872.7 86 886.3 87.5L900 89L900 101L886.3 101C872.7 101 845.3 101 818 101C790.7 101 763.3 101 736.2 101C709 101 682 101 654.8 101C627.7 101 600.3 101 573 101C545.7 101 518.3 101 491 101C463.7 101 436.3 101 409 101C381.7 101 354.3 101 327 101C299.7 101 272.3 101 245.2 101C218 101 191 101 163.8 101C136.7 101 109.3 101 82 101C54.7 101 27.3 101 13.7 101L0 101Z" fill="#fff1e6"></path></svg>