<svg id="visual" viewBox="0 0 900 100" width="900" height="100" xmlns="http://www.w3.org/2000/svg" xmlns:xlink="http://www.w3.org/1999/xlink" version="1.1"><path d="M0 9L13.7 9.7C27.3 10.3 54.7 11.7 82 12.7C109.3 13.7 136.7 14.3 163.8 14.7C191 15 218 15 245.2 14.2C272.3 13.3 299.7 11.7 327 11.5C354.3 11.3 381.7 12.7 409 12.7C436.3 12.7 463.7 11.3 491 10.8C518.3 10.3 545.7 10.7 573 10.8C600.3 11 627.7 11 654.8 11.3C682 11.7 709 12.3 736.2 12.3C763.3 12.3 790.7 11.7 818 11.5C845.3 11.3 872.7 11.7 886.3 11.8L900 12L900 0L886.3 0C872.7 0 845.3 0 818 0C790.7 0 763.3 0 736.2 0C709 0 682 0 654.8 0C627.7 0 600.3 0 573 0C545.7 0 518.3 0 491 0C463.7 0 436.3 0 409 0C381.7 0 354.3 0 327 0C299.7 0 272.3 0 245.2 0C218 0 191 0 163.8 0C136.7 0 109.3 0 82 0C54.7 0 27.3 0 13.7 0L0 0Z" fill="#b7e4c7"></path><path d="M0 37L13.7 36.7C27.3 36.3 54.7 35.7 82 34.5C109.3 33.3 136.7 31.7 163.8 32.2C191 32.7 218 35.3 245.2 34.5C272.3 33.7 299.7 29.3 327 27.5C354.3 25.7 381.7 26.3 409 27.7C436.3 29 463.7 31 491 32C518.3 33 545.7 33 573 32.3C600.3 31.7 627.7 30.3 654.8 29.5C682 28.7 709 28.3 736.2 27C763.3 25.7 790.7 23.3 818 23C845.3 22.7 872.7 24.3 886.3 25.2L900 26L900 10L886.3 9.8C872.7 9.7 845.3 9.3 818 9.5C790.7 9.7 763.3 10.3 736.2 10.3C709 10.3 682 9.7 654.8 9.3C627.7 9 600.3 9 573 8.8C545.7 8.7 518.3 8.3 491 8.8C463.7 9.3 436.3 10.7 409 10.7C381.7 10.7 354.3 9.3 327 9.5C299.7 9.7 272.3 11.3 245.2 12.2C218 13 191 13 163.8 12.7C136.7 12.3 109.3 11.7 82 10.7C54.7 9.7 27.3 8.3 13.7 7.7L0 7Z" fill="#c9ebd5"></path><path d="M0 60L13.7 60.3C27.3 60.7 54.7 61.3 82 60.8C109.3 60.3 136.7 58.7 163.8 58.7C191 58.7 218 60.3 245.2 60.2C272.3 60 299.7 58 327 55.7C354.3 53.3 381.7 50.7 409 52.3C436.3 54 463.7 60 491 63.3C518.3 66.7 545.7 67.3 573 65.5C600.3 63.7 627.7 59.3 654.8 58C682 56.7 709 58.3 736.2 59.2C763.3 60 790.7 60 818 61.2C845.3 62.3 872.7 64.7 886.3 65.8L900 67L900 24L886.3 23.2C872.7 22.3 845.3 20.7 818 21C790.7 21.3 763.3 23.7 736.2 25C709 26.3 682 26.7 654.8 27.5C627.7 28.3 600.3 29.7 573 30.3C545.7 31 518.3 31 491 30C463.7 29 436.3 27 409 25.7C381.7 24.3 354.3 23.7 327 25.5C299.7 27.3 272.3 31.7 245.2 32.5C218 33.3 191 30.7 163.8 30.2C136.7 29.7 109.3 31.3 82 32.5C54.7 33.7 27.3 34.3 13.7 34.7L0 35Z" fill="#dbf2e3"></path><path d="M0 68L13.7 70.5C27.3 73 54.7 78 82 79C109.3 80 136.7 77 163.8 76.2C191 75.3 218 76.7 245.2 75.7C272.3 74.7 299.7 71.3 327 68.5C354.3 65.7 381.7 63.3 409 65C436.3 66.7 463.7 72.3 491 75.2C518.3 78 545.7 78 573 76.2C600.3 74.3 627.7 70.7 654.8 69.3C682 68 709 69 736.2 70.2C763.3 71.3 790.7 72.7 818 73.7C845.3 74.7 872.7 75.3 886.3 75.7L900 76L900 65L886.3 63.8C872.7 62.7 845.3 60.3 818 59.2C790.7 58 763.3 58 736.2 57.2C709 56.3 682 54.7 654.8 56C627.7 57.3 600.3 61.7 573 63.5C545.7 65.3 518.3 64.7 491 61.3C463.7 58 436.3 52 409 50.3C381.7 48.7 354.3 51.3 327 53.7C299.7 56 272.3 58 245.2 58.2C218 58.3 191 56.7 163.8 56.7C136.7 56.7 109.3 58.3 82 58.8C54.7 59.3 27.3 58.7 13.7 58.3L0 58Z" fill="#edf9f1"></path><path d="M0 101L13.7 101C27.3 101 54.7 101 82 101C109.3 101 136.7 101 163.8 101C191 101 218 101 245.2 101C272.3 101 299.7 101 327 101C354.3 101 381.7 101 409 101C436.3 101 463.7 101 491 101C518.3 101 545.7 101 573 101C600.3 101 627.7 101 654.8 101C682 101 709 101 736.2 101C763.3 101 790.7 101 818 101C845.3 101 872.7 101 886.3 101L900 101L900 74L886.3 73.7C872.7 73.3 845.3 72.7 818 71.7C790.7 70.7 763.3 69.3 736.2 68.2C709 67 682 66 654.8 67.3C627.7 68.7 600.3 72.3 573 74.2C545.7 76 518.3 76 491 73.2C463.7 70.3 436.3 64.7 409 63C381.7 61.3 354.3 63.7 327 66.5C299.7 69.3 272.3 72.7 245.2 73.7C218 74.7 191 73.3 163.8 74.2C136.7 75 109.3 78 82 77C54.7 76 27.3 71 13.7 68.5L0 66Z" fill="#ffffff"></path></svg>