<svg id="visual" viewBox="0 0 900 100" width="900" height="100" xmlns="http://www.w3.org/2000/svg" xmlns:xlink="http://www.w3.org/1999/xlink" version="1.1"><path d="M0 8L13.7 8.5C27.3 9 54.7 10 82 10C109.3 10 136.7 9 163.8 9.7C191 10.3 218 12.7 245.2 12.8C272.3 13 299.7 11 327 11.5C354.3 12 381.7 15 409 14.8C436.3 14.7 463.7 11.3 491 10C518.3 8.7 545.7 9.3 573 9.3C600.3 9.3 627.7 8.7 654.8 9.3C682 10 709 12 736.2 12.3C763.3 12.7 790.7 11.3 818 10.8C845.3 10.3 872.7 10.7 886.3 10.8L900 11L900 0L886.3 0C872.7 0 845.3 0 818 0C790.7 0 763.3 0 736.2 0C709 0 682 0 654.8 0C627.7 0 600.3 0 573 0C545.7 0 518.3 0 491 0C463.7 0 436.3 0 409 0C381.7 0 354.3 0 327 0C299.7 0 272.3 0 245.2 0C218 0 191 0 163.8 0C136.7 0 109.3 0 82 0C54.7 0 27.3 0 13.7 0L0 0Z" fill="#ffc599"></path><path d="M0 28L13.7 29.7C27.3 31.3 54.7 34.7 82 33.2C109.3 31.7 136.7 25.3 163.8 25.7C191 26 218 33 245.2 34C272.3 35 299.7 30 327 29C354.3 28 381.7 31 409 32.5C436.3 34 463.7 34 491 32C518.3 30 545.7 26 573 23.3C600.3 20.7 627.7 19.3 654.8 20.3C682 21.3 709 24.7 736.2 24.8C763.3 25 790.7 22 818 20.8C845.3 19.7 872.7 20.3 886.3 20.7L900 21L900 9L886.3 8.8C872.7 8.7 845.3 8.3 818 8.8C790.7 9.3 763.3 10.7 736.2 10.3C709 10 682 8 654.8 7.3C627.7 6.7 600.3 7.3 573 7.3C545.7 7.3 518.3 6.7 491 8C463.7 9.3 436.3 12.7 409 12.8C381.7 13 354.3 10 327 9.5C299.7 9 272.3 11 245.2 10.8C218 10.7 191 8.3 163.8 7.7C136.7 7 109.3 8 82 8C54.7 8 27.3 7 13.7 6.5L0 6Z" fill="#e8d5a6"></path><path d="M0 44L13.7 48.3C27.3 52.7 54.7 61.3 82 60.7C109.3 60 136.7 50 163.8 50.2C191 50.3 218 60.7 245.2 61C272.3 61.3 299.7 51.7 327 49C354.3 46.3 381.7 50.7 409 52.7C436.3 54.7 463.7 54.3 491 54.2C518.3 54 545.7 54 573 52.2C600.3 50.3 627.7 46.7 654.8 47.3C682 48 709 53 736.2 53.8C763.3 54.7 790.7 51.3 818 48.3C845.3 45.3 872.7 42.7 886.3 41.3L900 40L900 19L886.3 18.7C872.7 18.3 845.3 17.7 818 18.8C790.7 20 763.3 23 736.2 22.8C709 22.7 682 19.3 654.8 18.3C627.7 17.3 600.3 18.7 573 21.3C545.7 24 518.3 28 491 30C463.7 32 436.3 32 409 30.5C381.7 29 354.3 26 327 27C299.7 28 272.3 33 245.2 32C218 31 191 24 163.8 23.7C136.7 23.3 109.3 29.7 82 31.2C54.7 32.7 27.3 29.3 13.7 27.7L0 26Z" fill="#d8e1be"></path><path d="M0 80L13.7 81C27.3 82 54.7 84 82 85C109.3 86 136.7 86 163.8 86.8C191 87.7 218 89.3 245.2 88.2C272.3 87 299.7 83 327 82.2C354.3 81.3 381.7 83.7 409 84.2C436.3 84.7 463.7 83.3 491 83.8C518.3 84.3 545.7 86.7 573 87.3C600.3 88 627.7 87 654.8 86.8C682 86.7 709 87.3 736.2 87C763.3 86.7 790.7 85.3 818 85C845.3 84.7 872.7 85.3 886.3 85.7L900 86L900 38L886.3 39.3C872.7 40.7 845.3 43.3 818 46.3C790.7 49.3 763.3 52.7 736.2 51.8C709 51 682 46 654.8 45.3C627.7 44.7 600.3 48.3 573 50.2C545.7 52 518.3 52 491 52.2C463.7 52.3 436.3 52.7 409 50.7C381.7 48.7 354.3 44.3 327 47C299.7 49.7 272.3 59.3 245.2 59C218 58.7 191 48.3 163.8 48.2C136.7 48 109.3 58 82 58.7C54.7 59.3 27.3 50.7 13.7 46.3L0 42Z" fill="#d5e8d7"></path><path d="M0 101L13.7 101C27.3 101 54.7 101 82 101C109.3 101 136.7 101 163.8 101C191 101 218 101 245.2 101C272.3 101 299.7 101 327 101C354.3 101 381.7 101 409 101C436.3 101 463.7 101 491 101C518.3 101 545.7 101 573 101C600.3 101 627.7 101 654.8 101C682 101 709 101 736.2 101C763.3 101 790.7 101 818 101C845.3 101 872.7 101 886.3 101L900 101L900 84L886.3 83.7C872.7 83.3 845.3 82.7 818 83C790.7 83.3 763.3 84.7 736.2 85C709 85.3 682 84.7 654.8 84.8C627.7 85 600.3 86 573 85.3C545.7 84.7 518.3 82.3 491 81.8C463.7 81.3 436.3 82.7 409 82.2C381.7 81.7 354.3 79.3 327 80.2C299.7 81 272.3 85 245.2 86.2C218 87.3 191 85.7 163.8 84.8C136.7 84 109.3 84 82 83C54.7 82 27.3 80 13.7 79L0 78Z" fill="#e2ece9"></path></svg>