<svg id="visual" viewBox="0 0 900 100" width="900" height="100" xmlns="http://www.w3.org/2000/svg" xmlns:xlink="http://www.w3.org/1999/xlink" version="1.1"><path d="M0 50L16.7 47.8C33.3 45.7 66.7 41.3 100 42.3C133.3 43.3 166.7 49.7 200 46.3C233.3 43 266.7 30 300 26.3C333.3 22.7 366.7 28.3 400 33.7C433.3 39 466.7 44 500 41.8C533.3 39.7 566.7 30.3 600 29.2C633.3 28 666.7 35 700 36.3C733.3 37.7 766.7 33.3 800 32.3C833.3 31.3 866.7 33.7 883.3 34.8L900 36L900 0L883.3 0C866.7 0 833.3 0 800 0C766.7 0 733.3 0 700 0C666.7 0 633.3 0 600 0C566.7 0 533.3 0 500 0C466.7 0 433.3 0 400 0C366.7 0 333.3 0 300 0C266.7 0 233.3 0 200 0C166.7 0 133.3 0 100 0C66.7 0 33.3 0 16.7 0L0 0Z" fill="#ffffff"></path><path d="M0 75L16.7 74C33.3 73 66.7 71 100 70C133.3 69 166.7 69 200 68.7C233.3 68.3 266.7 67.7 300 65.5C333.3 63.3 366.7 59.7 400 60C433.3 60.3 466.7 64.7 500 66.7C533.3 68.7 566.7 68.3 600 71C633.3 73.7 666.7 79.3 700 78.7C733.3 78 766.7 71 800 66.2C833.3 61.3 866.7 58.7 883.3 57.3L900 56L900 34L883.3 32.8C866.7 31.7 833.3 29.3 800 30.3C766.7 31.3 733.3 35.7 700 34.3C666.7 33 633.3 26 600 27.2C566.7 28.3 533.3 37.7 500 39.8C466.7 42 433.3 37 400 31.7C366.7 26.3 333.3 20.7 300 24.3C266.7 28 233.3 41 200 44.3C166.7 47.7 133.3 41.3 100 40.3C66.7 39.3 33.3 43.7 16.7 45.8L0 48Z" fill="#afb0b2"></path><path d="M0 88L16.7 87.3C33.3 86.7 66.7 85.3 100 83.5C133.3 81.7 166.7 79.3 200 79.7C233.3 80 266.7 83 300 85C333.3 87 366.7 88 400 87C433.3 86 466.7 83 500 82C533.3 81 566.7 82 600 84.5C633.3 87 666.7 91 700 89.8C733.3 88.7 766.7 82.3 800 79.2C833.3 76 866.7 76 883.3 76L900 76L900 54L883.3 55.3C866.7 56.7 833.3 59.3 800 64.2C766.7 69 733.3 76 700 76.7C666.7 77.3 633.3 71.7 600 69C566.7 66.3 533.3 66.7 500 64.7C466.7 62.7 433.3 58.3 400 58C366.7 57.7 333.3 61.3 300 63.5C266.7 65.7 233.3 66.3 200 66.7C166.7 67 133.3 67 100 68C66.7 69 33.3 71 16.7 72L0 73Z" fill="#65666a"></path><path d="M0 101L16.7 101C33.3 101 66.7 101 100 101C133.3 101 166.7 101 200 101C233.3 101 266.7 101 300 101C333.3 101 366.7 101 400 101C433.3 101 466.7 101 500 101C533.3 101 566.7 101 600 101C633.3 101 666.7 101 700 101C733.3 101 766.7 101 800 101C833.3 101 866.7 101 883.3 101L900 101L900 74L883.3 74C866.7 74 833.3 74 800 77.2C766.7 80.3 733.3 86.7 700 87.8C666.7 89 633.3 85 600 82.5C566.7 80 533.3 79 500 80C466.7 81 433.3 84 400 85C366.7 86 333.3 85 300 83C266.7 81 233.3 78 200 77.7C166.7 77.3 133.3 79.7 100 81.5C66.7 83.3 33.3 84.7 16.7 85.3L0 86Z" fill="#24262b"></path></svg>