<svg id="visual" viewBox="0 0 900 100" width="900" height="100" xmlns="http://www.w3.org/2000/svg" xmlns:xlink="http://www.w3.org/1999/xlink" version="1.1"><path d="M0 4L30 3.8C60 3.7 120 3.3 180 3.5C240 3.7 300 4.3 360 6C420 7.7 480 10.3 540 10.2C600 10 660 7 720 6.3C780 5.7 840 7.3 870 8.2L900 9L900 0L870 0C840 0 780 0 720 0C660 0 600 0 540 0C480 0 420 0 360 0C300 0 240 0 180 0C120 0 60 0 30 0L0 0Z" fill="#fce1eb"></path><path d="M0 13L30 12.7C60 12.3 120 11.7 180 12C240 12.3 300 13.7 360 15.8C420 18 480 21 540 20.5C600 20 660 16 720 14.8C780 13.7 840 15.3 870 16.2L900 17L900 7L870 6.2C840 5.3 780 3.7 720 4.3C660 5 600 8 540 8.2C480 8.3 420 5.7 360 4C300 2.3 240 1.7 180 1.5C120 1.3 60 1.7 30 1.8L0 2Z" fill="#fcdde9"></path><path d="M0 34L30 32.5C60 31 120 28 180 27.2C240 26.3 300 27.7 360 27.5C420 27.3 480 25.7 540 22.8C600 20 660 16 720 15C780 14 840 16 870 17L900 18L900 15L870 14.2C840 13.3 780 11.7 720 12.8C660 14 600 18 540 18.5C480 19 420 16 360 13.8C300 11.7 240 10.3 180 10C120 9.7 60 10.3 30 10.7L0 11Z" fill="#fbdae6"></path><path d="M0 45L30 43.7C60 42.3 120 39.7 180 38.7C240 37.7 300 38.3 360 36.5C420 34.7 480 30.3 540 26.3C600 22.3 660 18.7 720 18.2C780 17.7 840 20.3 870 21.7L900 23L900 16L870 15C840 14 780 12 720 13C660 14 600 18 540 20.8C480 23.7 420 25.3 360 25.5C300 25.7 240 24.3 180 25.2C120 26 60 29 30 30.5L0 32Z" fill="#fbd6e4"></path><path d="M0 73L30 72.3C60 71.7 120 70.3 180 69C240 67.7 300 66.3 360 66.8C420 67.3 480 69.7 540 67.8C600 66 660 60 720 61.2C780 62.3 840 70.7 870 74.8L900 79L900 21L870 19.7C840 18.3 780 15.7 720 16.2C660 16.7 600 20.3 540 24.3C480 28.3 420 32.7 360 34.5C300 36.3 240 35.7 180 36.7C120 37.7 60 40.3 30 41.7L0 43Z" fill="#fad2e1"></path><path d="M0 75L30 75.7C60 76.3 120 77.7 180 78C240 78.3 300 77.7 360 78.8C420 80 480 83 540 81.7C600 80.3 660 74.7 720 75.8C780 77 840 85 870 89L900 93L900 77L870 72.8C840 68.7 780 60.3 720 59.2C660 58 600 64 540 65.8C480 67.7 420 65.3 360 64.8C300 64.3 240 65.7 180 67C120 68.3 60 69.7 30 70.3L0 71Z" fill="#facbdd"></path><path d="M0 85L30 85.8C60 86.7 120 88.3 180 89.2C240 90 300 90 360 90C420 90 480 90 540 87.8C600 85.7 660 81.3 720 82C780 82.7 840 88.3 870 91.2L900 94L900 91L870 87C840 83 780 75 720 73.8C660 72.7 600 78.3 540 79.7C480 81 420 78 360 76.8C300 75.7 240 76.3 180 76C120 75.7 60 74.3 30 73.7L0 73Z" fill="#f9c5d8"></path><path d="M0 95L30 94.5C60 94 120 93 180 92.7C240 92.3 300 92.7 360 93.3C420 94 480 95 540 94.8C600 94.7 660 93.3 720 93.8C780 94.3 840 96.7 870 97.8L900 99L900 92L870 89.2C840 86.3 780 80.7 720 80C660 79.3 600 83.7 540 85.8C480 88 420 88 360 88C300 88 240 88 180 87.2C120 86.3 60 84.7 30 83.8L0 83Z" fill="#f9bed4"></path><path d="M0 101L30 101C60 101 120 101 180 101C240 101 300 101 360 101C420 101 480 101 540 101C600 101 660 101 720 101C780 101 840 101 870 101L900 101L900 97L870 95.8C840 94.7 780 92.3 720 91.8C660 91.3 600 92.7 540 92.8C480 93 420 92 360 91.3C300 90.7 240 90.3 180 90.7C120 91 60 92 30 92.5L0 93Z" fill="#f8b7cf"></path></svg>